<?xml version="1.0" standalone="no"?>
<!DOCTYPE svg PUBLIC "-//W3C//DTD SVG 20010904//EN"
 "http://www.w3.org/TR/2001/REC-SVG-20010904/DTD/svg10.dtd">
<svg version="1.0" xmlns="http://www.w3.org/2000/svg"
 width="225.000000pt" height="225.000000pt" viewBox="0 0 225.000000 225.000000"
 preserveAspectRatio="xMidYMid meet">
<metadata>
Created by potrace 1.14, written by Peter Selinger 2001-2017
</metadata>
<g transform="translate(0.000000,225.000000) scale(0.100000,-0.100000)"
fill="#000000" stroke="none">
<path d="M957 2216 c-23 -21 -31 -23 -59 -15 -49 14 -85 11 -104 -8 -9 -10
-35 -18 -59 -19 -24 -2 -59 -9 -78 -18 -41 -17 -117 -83 -117 -101 0 -7 -21
-18 -47 -24 -62 -16 -121 -55 -129 -86 -3 -14 -23 -34 -47 -49 -71 -41 -136
-140 -122 -185 4 -13 2 -21 -5 -21 -7 0 -9 -7 -6 -16 4 -11 -5 -20 -34 -31
-36 -15 -40 -19 -40 -52 0 -25 -6 -40 -20 -49 -14 -9 -20 -23 -20 -51 0 -23
-6 -44 -16 -52 -25 -21 -34 -55 -23 -88 8 -23 7 -35 -6 -55 -13 -20 -16 -42
-11 -113 7 -119 7 -112 0 -166 -4 -35 -2 -53 9 -65 10 -11 12 -24 7 -37 -15
-37 -10 -73 14 -102 12 -15 25 -47 29 -70 7 -60 37 -116 70 -131 15 -7 73 -22
129 -33 56 -11 104 -22 107 -24 11 -11 -7 -12 -59 -4 -63 11 -119 4 -126 -16
-12 -30 59 -134 117 -170 21 -14 45 -38 54 -55 19 -36 91 -80 132 -80 25 0 34
-7 50 -36 24 -46 113 -103 168 -105 22 -2 52 -11 67 -21 30 -21 108 -24 126
-6 9 9 17 7 34 -9 49 -44 115 -57 153 -29 17 12 23 12 47 0 46 -24 103 -18
141 15 23 21 37 27 48 20 24 -15 106 -11 124 7 9 9 36 18 60 20 24 2 66 14 93
28 44 22 49 23 59 8 6 -9 14 -14 18 -10 4 4 3 14 -4 22 -9 11 -7 21 8 48 16
27 32 37 78 51 57 18 123 68 123 94 0 7 13 19 28 27 42 22 91 75 118 128 13
26 24 50 24 52 0 16 -85 26 -137 16 -68 -12 -63 -12 -63 0 0 6 9 10 20 10 49
0 225 51 247 72 28 26 46 80 41 119 -3 21 0 33 12 39 10 5 25 24 33 43 13 27
14 40 5 70 -9 31 -9 40 5 55 21 23 22 70 2 92 -14 15 -14 21 1 56 21 51 16
164 -9 192 -14 15 -16 25 -7 46 12 33 4 73 -18 85 -12 7 -16 21 -14 49 3 32
-1 43 -21 58 -13 11 -22 25 -19 32 10 31 -8 59 -49 75 -25 10 -38 20 -34 27 4
6 -1 18 -11 25 -11 9 -14 14 -6 15 44 1 -37 141 -101 173 -22 11 -43 31 -48
46 -6 14 -18 34 -27 45 -22 24 -90 55 -122 56 -19 0 -31 9 -44 35 -23 42 -95
90 -153 103 -23 5 -44 8 -46 5 -3 -2 -20 5 -38 16 -37 23 -89 27 -120 11 -15
-9 -26 -6 -53 15 -25 19 -45 25 -82 25 -28 0 -56 -6 -62 -12 -10 -10 -17 -10
-32 0 -11 6 -44 12 -73 12 -43 0 -59 -5 -80 -24z m128 -7 c6 -6 -3 -20 -25
-39 -36 -31 -54 -32 -27 -2 10 10 17 22 17 25 0 15 -30 6 -49 -14 -11 -12 -24
-18 -30 -14 -19 11 -12 25 22 45 32 20 71 20 92 -1z m163 1 c17 -11 32 -24 32
-29 0 -21 -23 -22 -44 -2 -26 24 -51 28 -42 6 6 -18 1 -19 -25 -5 -25 14 -24
29 4 40 32 13 39 12 75 -10z m-354 -39 c2 -3 -14 -26 -36 -51 -37 -42 -41 -42
-23 2 4 11 -1 23 -15 35 l-21 18 28 5 c29 6 61 2 67 -9z m264 -15 l41 -33 -33
-32 c-39 -38 -55 -39 -87 -5 l-24 26 37 -7 c21 -4 46 -4 55 0 17 6 17 7 -1 21
-11 8 -30 14 -43 14 -13 0 -23 3 -23 7 0 6 30 43 36 43 1 0 20 -15 42 -34z
m270 20 c3 -4 -3 -12 -13 -20 -17 -12 -18 -18 -7 -40 6 -14 8 -26 3 -26 -8 0
-71 74 -71 84 0 12 75 14 88 2z m-480 -28 c10 -10 5 -18 -20 -40 -28 -23 -30
-28 -15 -34 12 -4 27 2 42 16 36 34 42 18 10 -24 l-27 -36 -39 22 -38 21 22
30 c12 16 26 35 32 43 12 17 18 17 33 2z m432 -68 c0 -4 -17 -16 -38 -28 l-39
-22 -32 40 c-36 45 -33 49 16 19 19 -12 41 -18 50 -15 13 6 10 12 -20 33 -29
21 -35 29 -25 40 9 12 18 7 50 -24 21 -20 38 -40 38 -43z m-630 47 c0 -20 -5
-22 -40 -22 -51 0 -67 -16 -54 -52 8 -24 16 -28 52 -31 37 -3 42 -6 42 -28 0
-13 -4 -24 -10 -24 -5 0 -10 7 -10 16 0 14 -2 14 -16 3 -12 -9 -14 -23 -10
-50 5 -31 0 -45 -27 -85 -23 -36 -39 -50 -59 -52 -16 -2 -28 -1 -28 2 0 13 26
49 58 81 40 41 43 85 7 120 -13 14 -31 25 -40 25 -19 0 -20 16 0 24 8 3 15 16
15 29 0 30 19 47 63 57 51 13 57 11 57 -13z m707 -14 c-3 -3 -11 -2 -17 2 -8
5 -7 11 2 22 12 15 13 14 16 -1 2 -10 1 -20 -1 -23z m125 16 c10 -5 18 -17 18
-25 0 -12 -5 -13 -22 -7 -13 4 -38 7 -55 7 -28 0 -33 3 -33 24 0 23 3 24 37
17 21 -4 46 -11 55 -16z m-774 -7 c2 -7 -3 -12 -12 -12 -9 0 -16 7 -16 16 0
17 22 14 28 -4z m259 -126 c-32 -34 -37 -36 -56 -24 -29 18 -26 26 11 30 49 5
48 28 -1 28 -48 0 -50 6 -16 42 l25 27 36 -33 35 -32 -34 -38z m193 42 c8 -14
5 -15 -30 -11 -23 3 -46 1 -54 -6 -10 -9 -16 -8 -25 3 -9 11 -4 20 26 44 l38
31 18 -22 c10 -12 22 -29 27 -39z m-525 33 c7 -12 -32 -34 -45 -26 -6 3 -10
13 -10 21 0 16 45 20 55 5z m725 -27 c0 -18 -8 -18 -26 1 -19 19 -8 41 12 24
8 -6 14 -18 14 -25z m98 19 c-3 -12 -12 -17 -28 -15 -29 3 -34 7 -25 21 3 6
17 11 31 11 19 0 25 -5 22 -17z m110 -5 c2 -9 -11 -19 -37 -27 -22 -6 -50 -24
-61 -39 -21 -26 -22 -26 -36 -7 -14 19 -15 19 -20 -3 -4 -12 -10 -22 -14 -22
-12 0 -19 26 -13 48 4 17 11 19 43 15 30 -4 40 -1 52 16 12 17 21 21 43 15 24
-6 27 -4 22 10 -5 12 -3 16 5 14 7 -3 14 -11 16 -20z m-858 -2 c0 -7 -6 -19
-14 -25 -19 -16 -32 5 -16 24 16 19 30 19 30 1z m-220 -6 c0 -5 -4 -10 -10
-10 -5 0 -10 5 -10 10 0 6 5 10 10 10 6 0 10 -4 10 -10z m298 -20 c40 -25 34
-41 -13 -33 -30 5 -39 1 -65 -27 -16 -18 -30 -36 -30 -41 0 -20 41 -7 75 22
41 36 45 28 11 -21 -19 -28 -30 -35 -57 -35 -37 0 -39 2 -39 43 0 17 13 42 38
70 20 23 39 42 42 42 3 0 20 -9 38 -20z m555 -40 c23 -35 37 -69 35 -83 -3
-22 -4 -22 -66 -13 -8 1 -23 18 -35 37 l-22 34 29 -22 c29 -23 66 -31 66 -14
0 6 -10 22 -23 37 -17 20 -33 27 -62 28 -21 1 -40 6 -42 12 -3 10 51 42 72 43
6 0 27 -26 48 -59z m-824 7 c14 -6 27 -19 29 -27 5 -13 3 -13 -12 -1 -14 12
-19 12 -25 2 -9 -15 -38 -3 -61 23 -11 14 -9 16 16 16 16 0 40 -6 53 -13z
m535 -18 c14 -17 26 -35 26 -40 0 -13 -50 -79 -60 -79 -4 0 -15 12 -25 26 -16
25 -16 26 4 19 21 -6 61 9 61 25 0 5 -18 15 -40 21 -45 14 -46 15 -23 41 22
24 27 23 57 -13z m96 23 c0 -5 -9 -17 -20 -27 -16 -15 -22 -15 -35 -5 -22 18
-18 28 13 33 15 2 30 5 35 6 4 0 7 -3 7 -7z m440 -2 c0 -15 -39 -32 -60 -25
-12 4 -22 -1 -30 -12 -10 -17 -11 -17 -8 2 5 31 98 65 98 35z m60 -20 c13 -30
12 -39 -17 -147 -14 -54 -18 -61 -33 -53 -28 15 -32 60 -7 80 16 14 22 32 25
84 2 36 8 66 12 66 4 0 13 -13 20 -30z m-1284 1 c-10 -11 -16 -30 -14 -43 3
-21 0 -23 -32 -20 -19 2 -37 6 -39 8 -8 7 34 47 64 60 40 18 41 17 21 -5z m54
-30 c0 -35 7 -58 24 -84 13 -19 22 -38 19 -40 -2 -3 -6 -13 -7 -24 -2 -10 -9
-19 -17 -21 -14 -3 -34 51 -53 141 -8 36 3 77 20 77 10 0 14 -14 14 -49z
m1278 35 c28 -15 68 -54 61 -60 -2 -2 -21 -6 -42 -10 -36 -7 -38 -6 -32 14 4
13 0 31 -9 45 -19 29 -15 30 22 11z m-799 -40 c11 -13 9 -21 -9 -46 -12 -16
-37 -63 -56 -105 -19 -41 -44 -80 -56 -86 -24 -13 -124 -7 -139 8 -7 7 -8 27
-4 52 6 35 10 41 32 41 22 0 24 -3 19 -26 -13 -49 35 -71 82 -38 30 21 29 60
-2 76 -23 12 -23 15 -11 38 l13 25 11 -27 c15 -39 31 -44 31 -9 0 16 -4 33
-10 36 -16 10 -12 31 10 56 l21 24 -6 -30 c-3 -16 -1 -43 3 -60 l8 -30 19 29
c16 23 17 34 8 67 -9 34 -8 37 7 29 9 -5 22 -16 29 -24z m274 -11 c-4 -24 0
-43 13 -62 l18 -28 7 35 c4 19 3 42 -2 52 -22 42 -1 52 26 12 15 -23 15 -29 2
-57 -15 -30 -13 -57 4 -57 5 0 11 11 15 25 7 30 12 31 30 8 18 -25 17 -28 -11
-41 -47 -22 -20 -92 35 -92 35 0 53 21 44 54 -5 23 -3 26 19 26 22 0 26 -6 32
-40 4 -21 4 -44 0 -50 -13 -22 -52 -29 -95 -18 -44 12 -85 55 -119 128 -9 19
-27 50 -40 68 -22 32 -22 34 -6 53 26 28 34 23 28 -16z m-638 -27 c-5 -13 -45
-38 -60 -38 -8 0 -37 62 -31 67 3 3 17 -2 30 -11 33 -21 36 -20 36 6 0 20 2
21 15 7 9 -9 13 -22 10 -31z m930 12 c3 -10 19 -30 34 -43 26 -21 51 -57 51
-71 0 -21 -76 9 -84 33 -2 9 -12 28 -22 42 -17 26 -14 59 5 59 5 0 12 -9 16
-20z m125 -4 c0 -13 -7 -29 -15 -36 -11 -9 -20 -8 -45 10 -29 21 -39 40 -20
40 5 0 13 -7 18 -15 7 -14 11 -13 27 5 24 26 35 25 35 -4z m-441 -66 c23 -44
32 -73 33 -109 0 -64 -8 -78 -33 -55 -17 15 -19 15 -19 1 0 -9 5 -19 10 -22 6
-3 10 -10 10 -14 0 -15 -92 -121 -104 -121 -19 0 -89 64 -135 124 -38 49 -43
61 -43 106 1 51 40 140 62 140 14 0 13 -6 -14 -48 -18 -28 -24 -52 -25 -99 -1
-70 11 -87 29 -43 19 47 30 46 24 -2 -6 -49 17 -95 61 -124 34 -22 39 -15 21
36 -10 30 -12 49 -5 61 7 14 3 23 -15 41 -24 23 -24 23 -7 57 l18 34 16 -24
c9 -13 15 -44 15 -69 -1 -56 11 -128 22 -135 13 -8 40 49 40 84 0 34 -14 70
-48 123 -14 21 -22 44 -18 53 8 23 26 18 26 -8 0 -13 15 -38 35 -57 30 -29 37
-32 46 -20 13 21 2 58 -27 93 -13 16 -24 35 -24 43 0 29 18 12 49 -46z m626 2
c-3 -15 -14 -32 -23 -39 -9 -7 -27 -22 -39 -34 -14 -15 -27 -19 -40 -15 -16 7
-14 9 12 23 29 15 64 50 65 66 0 11 -53 -4 -72 -21 -15 -13 -18 -13 -18 -1 0
44 60 76 103 56 14 -7 17 -15 12 -35z m-1415 18 c11 -11 20 -27 20 -36 0 -13
-5 -12 -26 5 -26 20 -64 28 -64 14 1 -16 26 -41 59 -57 38 -20 32 -31 -20 -40
-28 -5 -38 -3 -43 9 -4 12 0 14 20 9 24 -6 25 -5 15 14 -6 11 -19 23 -30 27
-17 5 -31 32 -31 63 0 21 77 15 100 -8z m358 -15 c-7 -16 -17 -24 -26 -20 -7
3 -18 5 -23 5 -20 0 -7 19 19 28 40 15 43 14 30 -13z m268 0 c15 -23 15 -26
-4 -50 -12 -15 -23 -21 -27 -15 -3 6 -11 8 -16 5 -12 -8 -12 10 0 33 5 9 12
25 15 35 7 23 13 22 32 -8z m-746 -6 c0 -12 5 -39 12 -60 14 -49 7 -57 -28
-30 -28 22 -59 27 -69 12 -3 -5 4 -12 15 -16 29 -9 24 -25 -8 -25 -39 0 -44 8
-26 41 11 22 22 29 44 29 17 0 30 2 30 4 0 2 3 12 7 21 5 14 2 16 -18 11 l-24
-7 24 20 c30 27 41 26 41 0z m1126 11 c8 0 14 -4 14 -10 0 -5 -16 -10 -35 -10
-27 0 -33 3 -28 16 3 8 12 13 20 10 8 -3 21 -6 29 -6z m481 -12 c31 -29 29
-43 -2 -22 -22 15 -25 15 -25 1 0 -9 8 -21 18 -26 15 -9 14 -13 -13 -35 -37
-31 -49 -32 -42 -3 4 12 9 41 13 65 7 47 18 52 51 20z m-1217 3 c0 -6 -4 -13
-10 -16 -5 -3 -10 1 -10 9 0 9 5 16 10 16 6 0 10 -4 10 -9z m805 -1 c3 -5 3
-15 -1 -21 -6 -11 -23 6 -24 24 0 10 18 9 25 -3z m-827 -62 c2 -8 -2 -27 -7
-41 -9 -22 -17 -27 -43 -26 l-33 1 27 9 c30 11 46 39 22 39 -12 0 -13 4 -4 21
12 22 33 21 38 -3z m157 -8 c-3 -6 -15 -15 -26 -20 -15 -9 -21 -7 -25 5 -10
24 14 47 37 34 11 -5 17 -14 14 -19z m563 6 c6 -31 -15 -42 -38 -21 -20 18
-20 20 -4 32 22 16 38 12 42 -11z m143 4 c25 -14 24 -30 -2 -30 -18 0 -19 -2
-9 -15 7 -8 21 -15 31 -15 11 0 19 -6 19 -14 0 -25 -63 -4 -71 24 -16 58 -8
71 32 50z m427 -8 c2 -7 -2 -10 -12 -6 -9 3 -16 11 -16 16 0 13 23 5 28 -10z
m-138 -17 c0 -8 -7 -15 -15 -15 -16 0 -20 12 -8 23 11 12 23 8 23 -8z m-1249
-17 c-7 -19 -16 -23 -51 -23 -55 0 -63 20 -13 33 64 17 74 15 64 -10z m1112 5
c4 -2 7 -13 7 -24 0 -16 -7 -19 -44 -19 -40 0 -45 3 -55 31 l-10 30 47 -7 c26
-3 50 -8 55 -11z m297 -8 c0 -10 -10 -15 -29 -15 -32 0 -50 15 -29 23 27 11
58 7 58 -8z m-1536 -28 c-5 -15 -86 -17 -81 -2 4 10 66 24 79 18 4 -2 5 -9 2
-16z m1340 3 c15 -15 -3 -27 -34 -22 -33 5 -45 16 -35 32 6 10 54 3 69 -10z
m-1439 -10 c3 -5 -4 -12 -17 -15 -132 -30 -159 -32 -140 -12 11 10 42 18 144
36 4 0 10 -3 13 -9z m1624 -25 c14 -13 13 -15 -3 -15 -40 0 -146 24 -146 33 0
16 132 0 149 -18z m-1476 -1 c3 -3 -3 -20 -13 -37 -11 -17 -17 -34 -15 -37 2
-4 -28 -17 -67 -30 -44 -14 -100 -44 -146 -77 -67 -48 -92 -61 -92 -49 0 2 -3
11 -6 19 -3 10 10 23 40 41 53 31 76 64 55 77 -18 12 -38 11 -99 -2 -56 -12
-72 -7 -49 16 15 15 185 62 193 54 2 -2 1 -23 -4 -46 -5 -32 -4 -43 5 -43 21
0 39 30 40 63 0 22 5 33 17 35 13 2 16 -3 15 -24 -1 -15 4 -29 11 -31 6 -3 12
2 12 10 0 10 8 13 25 9 22 -4 28 1 38 27 11 29 26 39 40 25z m90 -30 c25 -51
23 -55 -33 -52 -55 3 -56 4 -35 32 8 11 15 28 15 38 0 31 34 20 53 -18z m160
5 c84 -26 101 -36 141 -79 25 -27 46 -58 46 -70 0 -11 -2 -20 -5 -20 -19 0
-85 43 -98 63 -12 18 -34 29 -88 42 -48 12 -83 28 -105 47 -66 58 -32 63 109
17z m968 -6 c8 -21 14 -24 38 -20 25 5 28 4 23 -19 -2 -13 0 -24 6 -24 13 0
22 24 22 57 0 36 13 20 25 -30 10 -43 52 -78 66 -55 4 7 9 6 14 -2 4 -6 32
-27 62 -47 50 -32 53 -36 37 -48 -16 -11 -27 -7 -89 35 -39 27 -90 53 -115 59
-51 11 -142 8 -210 -8 -58 -13 -69 -1 -36 42 14 18 26 38 26 43 0 5 6 18 14
29 11 17 23 20 61 17 39 -4 48 -8 56 -29z m-1281 17 c0 -5 -7 -10 -15 -10 -8
0 -15 5 -15 10 0 6 7 10 15 10 8 0 15 -4 15 -10z m1130 -8 c0 -11 -8 -26 -17
-34 -28 -25 -178 -98 -201 -98 -11 0 -22 -6 -25 -13 -5 -15 -67 -11 -67 3 0
19 101 97 141 109 24 7 67 21 94 31 64 24 75 24 75 2z m375 -17 c79 -12 135
-35 135 -56 0 -23 1 -23 -43 -4 -43 18 -108 20 -124 4 -9 -9 -16 -2 -27 26
-20 47 -20 47 2 42 9 -3 35 -8 57 -12z m-1721 -74 c6 -9 -18 -33 -53 -51 -19
-10 -26 -9 -39 4 -20 19 -10 31 38 44 46 13 48 13 54 3z m1814 -12 c24 -9 25
-10 16 -33 -8 -21 -18 -20 -59 7 -63 40 -39 56 43 26z m-1518 -8 c0 -5 -11
-16 -25 -25 -14 -9 -25 -25 -25 -36 0 -19 2 -20 30 -5 16 8 33 27 36 40 4 17
13 25 28 25 29 0 39 -10 25 -27 -9 -9 -8 -13 0 -13 6 0 11 -7 11 -15 0 -22 16
-18 34 6 12 18 21 20 53 14 64 -11 123 -47 154 -92 16 -23 29 -49 29 -57 0 -9
20 -25 45 -37 101 -47 112 -157 30 -290 -19 -31 -35 -63 -35 -71 0 -28 -59
-108 -79 -108 -11 0 -35 -15 -54 -34 -40 -40 -98 -59 -227 -76 -115 -15 -125
-19 -173 -64 -47 -46 -82 -47 -122 -6 -16 17 -35 30 -42 30 -8 0 -13 13 -13
38 0 25 -7 45 -19 56 -15 13 -17 26 -13 62 3 32 0 54 -14 79 -17 32 -17 36 -1
70 21 44 22 97 2 134 -11 23 -12 35 -2 60 8 23 9 39 1 60 -10 26 -8 31 18 56
24 22 29 35 26 63 -3 34 1 39 57 79 33 23 63 42 67 43 3 0 4 -18 1 -40 -9 -69
29 -45 52 32 10 35 17 44 39 46 26 3 36 -11 16 -23 -13 -8 -13 -35 0 -35 5 0
12 11 16 25 3 14 14 30 23 35 20 12 51 13 51 1z m1600 -63 c0 -21 -10 -23 -34
-5 -16 12 -17 17 -6 37 12 23 13 23 26 5 8 -10 14 -27 14 -37z m-2011 23 c8
-15 6 -20 -15 -30 -14 -6 -27 -11 -29 -11 -10 0 -4 37 7 48 17 17 26 15 37 -7z
m1798 -31 c31 -22 63 -40 71 -40 11 0 12 -9 7 -39 -6 -34 -3 -43 23 -72 26
-29 28 -36 19 -67 -8 -25 -8 -39 1 -53 10 -16 10 -29 -3 -65 -20 -59 -19 -82
4 -128 19 -37 19 -38 0 -69 -20 -34 -25 -82 -9 -92 5 -3 -2 -22 -16 -43 -15
-22 -24 -46 -21 -59 3 -17 -5 -29 -36 -50 -40 -27 -43 -28 -172 -26 -83 1
-156 7 -196 17 -85 21 -206 83 -232 118 -11 15 -25 28 -30 28 -5 0 -25 13 -44
30 -18 16 -40 30 -47 30 -8 0 -17 7 -20 16 -14 36 -3 82 40 171 34 70 45 101
41 122 -3 16 -2 41 2 57 5 20 3 39 -7 61 -20 41 -11 58 35 73 21 7 63 28 93
46 70 42 110 53 110 29 0 -9 -11 -26 -25 -37 -14 -11 -25 -24 -25 -29 0 -14
22 -11 41 7 16 14 20 14 47 -6 16 -12 38 -20 48 -18 16 3 12 10 -24 46 -24 24
-42 46 -39 48 2 2 29 10 60 16 49 10 58 10 75 -5 20 -19 52 -23 52 -7 0 6 -9
10 -20 10 -30 0 -24 18 8 22 83 10 132 -1 189 -42z m-1759 -22 c9 -9 7 -17
-10 -35 -26 -28 -44 -29 -57 -4 -8 15 -6 22 12 34 27 19 39 21 55 5z m1942 -6
c14 -11 19 -23 14 -35 -7 -20 -41 -20 -63 1 -9 9 -17 10 -25 3 -9 -8 -13 -7
-13 4 0 8 4 12 8 9 4 -2 13 5 19 16 13 25 31 25 60 2z m-2026 -59 c5 -17 3
-29 -6 -34 -34 -22 -49 1 -28 42 15 26 27 24 34 -8z m2092 2 c3 -14 3 -32 0
-41 -6 -15 -9 -14 -30 5 -23 21 -23 24 -8 42 22 25 30 24 38 -6z m-88 -22 c10
-5 -11 -43 -24 -43 -19 0 -39 44 -30 66 6 15 8 15 29 -2 12 -10 24 -20 25 -21z
m-1896 1 c-2 -10 -10 -26 -18 -34 -14 -13 -17 -13 -30 5 -14 18 -13 22 7 38
26 21 45 17 41 -9z m-62 -64 c0 -3 -9 -11 -21 -18 -16 -10 -24 -11 -35 -1 -13
10 -12 15 8 36 21 22 23 23 35 7 7 -10 13 -20 13 -24z m2030 5 c0 -6 -6 -19
-13 -29 -12 -16 -14 -16 -31 3 -11 12 -15 27 -11 40 5 17 9 19 31 9 13 -6 24
-16 24 -23z m-2096 -95 c-7 -38 -7 -37 -5 -64 1 -19 10 -19 67 -1 18 6 23 1
33 -37 10 -36 10 -49 -4 -81 -16 -39 -43 -46 -37 -11 10 56 13 94 8 94 -4 0
-23 -7 -43 -15 -20 -9 -40 -12 -45 -7 -5 5 -14 34 -20 65 -11 49 -10 61 6 94
17 36 19 37 32 18 9 -13 12 -31 8 -55z m2145 -15 c1 -36 -16 -102 -28 -110 -5
-2 -25 2 -45 10 -49 20 -49 20 -43 -22 4 -21 8 -47 9 -57 5 -29 -17 -30 -30
-1 -16 34 -15 97 1 119 10 14 17 15 40 7 46 -18 57 -14 57 18 0 16 -5 42 -10
57 -9 21 -7 31 7 46 18 20 18 19 30 -9 7 -15 12 -41 12 -58z m-2059 40 c0 -40
-9 -44 -28 -14 -10 16 -10 24 -1 35 19 23 29 16 29 -21z m1954 -12 c-26 -19
-34 -16 -34 10 0 33 10 40 32 20 18 -16 18 -18 2 -30z m-1993 -29 c10 -13 10
-17 -2 -25 -23 -14 -29 -11 -29 16 0 29 12 32 31 9z m2029 -15 c0 -21 -7 -23
-29 -10 -12 8 -12 12 -2 25 16 19 31 12 31 -15z m-2040 -129 c0 -11 -4 -20 -9
-20 -14 0 -23 18 -16 30 10 17 25 11 25 -10z m2060 11 c0 -13 -26 -32 -33 -24
-14 13 -6 33 13 33 11 0 20 -4 20 -9z m40 -42 c9 -16 8 -26 -5 -46 -16 -23
-17 -24 -30 -6 -19 25 -18 43 3 59 22 17 19 17 32 -7z m-2139 -5 c17 -15 17
-18 2 -40 -12 -19 -19 -22 -29 -13 -21 17 -17 69 4 69 3 0 13 -7 23 -16z m53
-43 c3 -5 1 -23 -5 -40 -9 -26 -14 -29 -30 -20 -19 10 -19 11 -2 39 18 31 28
36 37 21z m2029 -16 c29 -40 2 -62 -34 -29 -15 13 -16 20 -6 35 15 24 18 24
40 -6z m-1973 -75 c0 -24 -10 -31 -31 -19 -22 11 -25 39 -7 57 10 10 15 9 25
-5 7 -9 13 -24 13 -33z m1925 20 c7 -21 -9 -50 -26 -50 -10 0 -12 53 -2 63 12
12 22 7 28 -13z m-2017 -56 c-14 -31 -26 -30 -40 1 -8 19 -8 28 2 40 12 14 15
14 31 -1 14 -13 16 -20 7 -40z m2107 37 c6 -19 -12 -71 -25 -71 -4 0 -10 14
-14 31 -9 47 25 82 39 40z m-2041 -88 c-8 -31 -54 -33 -54 -2 0 11 5 30 11 41
11 20 11 20 30 2 12 -13 16 -27 13 -41z m1986 6 c0 -14 -29 -37 -34 -27 -1 2
-8 11 -15 21 -12 15 -11 20 5 38 17 19 19 19 31 3 7 -10 13 -25 13 -35z
m-1940 -35 c0 -14 -21 -19 -33 -7 -9 9 13 34 24 27 5 -3 9 -12 9 -20z m1861
-15 c-21 -8 -26 7 -10 27 12 14 14 14 20 -3 4 -12 1 -20 -10 -24z m-1931 -24
c0 -35 18 -75 36 -82 10 -4 24 4 37 21 l22 27 45 -46 c34 -34 51 -45 76 -45
33 0 85 33 81 52 -1 6 5 13 13 15 13 4 13 3 0 -6 -11 -8 -11 -11 -2 -11 7 0
17 11 22 25 5 14 12 25 14 25 3 0 3 -7 -1 -16 -5 -14 -3 -15 15 -5 25 14 172
15 172 1 0 -5 -14 -23 -31 -41 -16 -17 -34 -42 -39 -55 -7 -17 -17 -24 -37
-24 -34 0 -46 8 -62 38 -15 28 -32 28 -68 -2 -28 -23 -29 -23 -108 -9 -171 30
-201 49 -212 132 -5 35 -3 41 11 35 9 -3 16 -17 16 -29z m1190 0 c18 -13 58
-32 87 -40 115 -33 215 -98 197 -126 -9 -16 -38 -10 -155 31 -97 34 -119 46
-151 81 -61 67 -46 104 22 54z m820 -5 c0 -17 -7 -44 -15 -60 -16 -31 -55 -47
-180 -70 -33 -6 -67 -13 -76 -16 -9 -3 -30 7 -47 21 -40 34 -55 32 -75 -10
-16 -33 -19 -35 -67 -35 -42 0 -50 3 -50 18 0 10 -7 27 -15 38 -30 40 -21 43
98 38 61 -3 117 -7 124 -9 24 -8 124 14 152 34 l28 20 27 -27 27 -27 20 24
c10 13 19 35 19 50 0 15 3 31 7 34 14 15 23 6 23 -23z m-1190 -5 c0 -20 -49
-74 -83 -91 -16 -9 -71 -26 -121 -38 -50 -13 -101 -26 -113 -30 -53 -17 -13
42 52 77 179 96 265 122 265 82z m-756 -20 c-7 -18 -31 -20 -37 -2 -8 24 4 37
24 27 10 -6 16 -17 13 -25z m1896 23 c0 -23 -16 -39 -33 -32 -22 8 -22 20 1
33 23 14 32 13 32 -1z m-965 -18 c4 -6 11 -7 17 -4 7 4 8 2 4 -5 -5 -7 21 -43
63 -92 75 -84 81 -102 58 -166 -7 -17 -27 -52 -45 -78 l-32 -46 -29 21 -29 20
34 51 c26 40 34 61 34 97 0 81 -73 171 -94 116 -6 -15 -8 -15 -26 1 -25 23
-43 15 -63 -28 -32 -66 -17 -137 41 -200 21 -22 24 -31 16 -45 -24 -38 -41
-24 -89 72 -59 119 -57 132 32 227 62 65 94 82 108 59z m31 -127 c28 -43 23
-109 -10 -160 -16 -24 -32 -43 -36 -43 -12 0 -60 67 -76 107 -20 48 -5 113 26
113 23 0 24 -3 9 -45 -15 -39 -5 -81 20 -95 42 -22 69 51 36 97 -14 20 -11 53
5 53 4 0 16 -12 26 -27z m-686 8 c0 -5 -7 -11 -14 -14 -10 -4 -13 -1 -9 9 6
15 23 19 23 5z m1321 -14 c-13 -13 -26 -3 -16 12 3 6 11 8 17 5 6 -4 6 -10 -1
-17z m-1295 -30 c2 -2 2 -11 -1 -19 -5 -13 -11 -13 -43 -3 -54 19 -56 39 -3
32 24 -3 45 -7 47 -10z m361 -2 c41 -17 54 -32 84 -95 11 -25 35 -67 52 -94
30 -47 30 -49 11 -63 -54 -41 -52 -42 -123 65 l-42 62 25 12 c14 6 28 20 32
30 11 34 -40 74 -82 64 -20 -5 -24 -13 -24 -41 0 -19 -2 -35 -4 -35 -2 0 -11
-3 -20 -6 -11 -4 -18 5 -26 35 -12 46 -8 58 24 71 31 13 53 12 93 -5z m-252
-31 c14 -22 14 -24 -4 -24 -58 0 -102 24 -87 49 10 16 75 -2 91 -25z m512 -8
c-9 -26 -27 -15 -27 16 1 31 1 32 15 13 9 -10 14 -24 12 -29z m386 27 c9 -5 9
-45 1 -67 -3 -9 -16 -16 -28 -16 -17 0 -21 6 -21 31 0 18 -7 36 -16 42 -24 15
-78 -9 -85 -39 -7 -26 10 -54 32 -54 8 0 14 -4 14 -8 0 -6 -78 -137 -97 -161
-6 -8 -83 32 -83 43 0 6 12 29 27 51 15 22 39 69 54 105 32 80 51 92 134 84
33 -3 63 -8 68 -11z m227 -2 c0 -12 -11 -23 -31 -30 -48 -17 -69 -14 -69 9 0
15 7 20 28 21 15 0 36 4 47 9 11 5 21 9 23 9 1 1 2 -8 2 -18z m110 10 c0 -9
-80 -25 -87 -17 -3 3 -2 9 2 15 7 13 85 15 85 2z m-1134 -36 c8 -20 12 -40 9
-45 -10 -16 -54 12 -70 43 -19 39 -20 37 16 37 25 0 32 -6 45 -35z m-346 10
c5 -3 2 -24 -6 -47 -7 -22 -14 -49 -14 -59 0 -28 -22 -23 -56 14 -42 45 -66
86 -58 99 7 10 115 5 134 -7z m1250 8 c0 -15 -52 -73 -66 -73 -16 0 -19 33 -4
61 10 18 70 29 70 12z m405 -3 c14 -22 -67 -130 -97 -130 -7 0 -15 26 -33 102
-6 24 -4 27 27 31 65 8 97 7 103 -3z m-1522 -30 c8 -7 -6 -75 -20 -96 -21 -30
-97 -46 -105 -22 -3 7 1 38 7 70 7 31 10 60 6 63 -8 9 102 -6 112 -15z m1376
-42 c15 -65 10 -88 -18 -88 -54 0 -101 49 -101 104 0 19 7 26 38 34 59 16 66
12 81 -50z m-1011 40 c8 -8 9 -15 1 -25 -15 -18 -36 -16 -43 3 -12 31 18 46
42 22z m570 -10 c-2 -13 -11 -24 -21 -26 -22 -4 -35 27 -16 39 25 16 41 10 37
-13z m-750 -58 c2 -8 22 -43 44 -77 30 -47 39 -69 34 -87 -5 -22 -10 -24 -39
-19 -24 3 -39 0 -50 -12 -40 -39 -4 -82 60 -72 28 5 34 3 29 -9 -3 -9 -6 -20
-6 -25 0 -33 -147 28 -170 70 -14 28 -14 28 24 35 44 8 89 59 80 90 -10 35
-33 66 -49 66 -8 0 -15 5 -15 12 0 6 -3 8 -7 5 -3 -4 -12 -2 -20 5 -10 8 -17
8 -25 0 -11 -11 -10 -12 7 -12 17 1 63 -32 74 -54 20 -37 2 -71 -45 -86 -33
-11 -39 -11 -51 6 -7 10 -14 26 -14 36 -2 31 -4 36 -11 44 -5 4 -8 -14 -8 -39
0 -26 -5 -47 -10 -47 -21 0 -85 31 -107 52 -27 25 -22 38 15 38 48 1 92 53 92
109 0 15 2 30 5 33 9 9 158 -47 163 -62z m1052 29 c0 -60 47 -109 105 -109 14
0 25 -4 25 -10 0 -26 -84 -80 -125 -80 -11 0 -14 6 -9 25 9 36 -15 114 -38
126 -47 25 -128 -38 -128 -99 0 -32 41 -69 84 -77 20 -4 36 -11 36 -15 0 -29
-116 -100 -164 -100 -28 0 -30 3 -40 43 -7 28 -7 28 19 11 17 -11 35 -14 59
-10 40 8 49 24 32 57 -10 20 -19 24 -55 23 l-43 -1 6 46 c3 24 10 47 15 50 5
4 27 33 48 66 37 55 43 60 94 71 80 17 79 17 79 -17z m-1000 -45 c0 -8 -4 -12
-10 -9 -5 3 -10 13 -10 21 0 8 5 12 10 9 6 -3 10 -13 10 -21z m760 2 c-2 -41
-30 -118 -58 -158 l-33 -47 -34 16 c-19 9 -35 22 -35 30 0 7 25 50 55 96 48
75 57 84 80 79 14 -2 25 -9 25 -16z m50 17 c0 -5 -4 -15 -10 -23 -11 -18 -25
-7 -17 15 6 15 27 21 27 8z m-706 -35 c7 -18 30 -55 50 -83 20 -27 36 -53 36
-57 0 -4 -18 -17 -39 -28 l-39 -19 -41 67 c-31 51 -41 79 -41 110 0 40 1 42
30 42 24 0 32 -6 44 -32z m856 -34 c6 -14 10 -43 10 -65 0 -37 -1 -39 -33 -39
-73 0 -104 67 -51 109 36 28 62 27 74 -5z m-547 -37 l28 -22 -26 -25 -26 -24
-26 27 c-26 26 -26 27 -8 47 23 25 24 25 58 -3z m-80 -125 l-36 -32 -28 32
c-16 18 -28 38 -29 43 0 6 17 19 38 31 l37 20 27 -30 28 -31 -37 -33z m171 67
c20 -12 36 -24 36 -28 0 -4 -13 -22 -28 -41 l-29 -34 -36 34 -37 34 27 28 c15
15 28 28 29 28 2 0 19 -9 38 -21z m-414 -61 c0 -4 -9 -8 -20 -8 -15 0 -20 7
-20 27 0 25 0 26 20 8 11 -10 20 -22 20 -27z m650 26 c0 -13 -21 -44 -30 -44
-14 0 -12 24 2 38 13 13 28 16 28 6z m-497 -38 c15 -19 27 -37 27 -40 0 -2
-14 -14 -31 -27 l-31 -21 -34 33 c-41 40 -42 49 -6 71 39 23 44 22 75 -16z
m384 8 l23 -14 -28 -40 c-15 -21 -31 -39 -37 -40 -5 0 -25 9 -43 20 l-33 20
28 40 c30 42 43 44 90 14z m-619 -1 c2 -9 -7 -13 -27 -13 -21 0 -31 5 -31 16
0 19 51 16 58 -3z m459 -48 c2 -1 -15 -18 -36 -39 l-39 -38 -38 35 -39 36 35
34 35 35 40 -31 c22 -17 41 -31 42 -32z m366 50 c-3 -13 -30 -18 -51 -10 -14
5 -14 7 -2 16 19 11 56 8 53 -6z m-690 -67 c31 -45 26 -58 -24 -58 -35 0 -42
10 -22 32 13 15 14 23 5 43 -19 41 9 30 41 -17z m540 11 c-4 -20 -1 -34 7 -39
7 -4 9 -13 6 -19 -13 -20 -76 -10 -76 12 0 9 59 77 67 77 1 0 0 -14 -4 -31z
m-611 -21 c-15 -15 -26 -4 -18 18 5 13 9 15 18 6 9 -9 9 -15 0 -24z m658 6 c0
-8 -4 -12 -10 -9 -5 3 -10 10 -10 16 0 5 5 9 10 9 6 0 10 -7 10 -16z m-193
-66 c-31 -24 -72 -31 -98 -18 -21 12 -21 12 16 50 l38 39 33 -27 34 -27 -23
-17z m-208 35 c39 -34 39 -50 1 -58 -30 -7 -89 18 -97 40 -3 9 43 44 58 45 4
0 21 -12 38 -27z"/>
<path d="M1690 1636 c0 -28 39 -61 53 -47 10 10 -28 71 -44 71 -5 0 -9 -11 -9
-24z"/>
<path d="M1820 1496 c0 -13 49 -56 64 -56 13 0 5 31 -14 50 -23 23 -50 26 -50
6z"/>
<path d="M536 375 c-9 -24 5 -41 16 -20 7 11 7 20 0 27 -6 6 -12 3 -16 -7z"/>
</g>
</svg>
